#!OML:ASF H:\charlestonDancing\Project 1\Capture day 1\Session 1\femaleDancer.ASF
:FULLY-SPECIFIED
:DEGREES
380
root 1.27885 17.2936 -1.96211 -145.287 -93.4697 147.824
lowerback 13.4957 -1.13751 2.40124
upperback 1.30766 -1.21025 -0.00201944
thorax -6.23875 -0.679995 -1.13087
lowerneck 9.17565 -14.7927 -12.1094
upperneck -2.5683 -20.7 8.28915
head -0.113033 -10.4816 4.46788
rclavicle 1.35174e-014 -1.43125e-014
rhumerus -29.8297 20.0111 -84.5899
rradius 52.5893
rwrist 19.3211
rhand -25.5454 -29.4692
rfingers 7.12502
rthumb 0.984801 -59.4467
lclavicle 1.35174e-014 -1.43125e-014
lhumerus -38.7715 21.764 8.62351
lradius 143.585
lwrist 2.03944
lhand 4.41805 9.4573
lfingers 7.12502
lthumb 29.8147 37.078
rfemur -11.9513 -9.73549 20.5914
rtibia 64.2996
rfoot -2.79741 12.2285
rtoes -22.8763
lfemur -23.8391 -3.82018 -26.0595
ltibia 46.49
lfoot -12.806 -11.3891
ltoes -4.28454
381
root 1.20743 17.2726 -1.97979 -163.958 -93.4377 165.511
lowerback 14.3263 -1.06913 1.16627
upperback 1.64074 -1.32609 -0.272015
thorax -6.32852 -0.712313 -0.685092
lowerneck 9.36502 -14.8092 -12.0665
upperneck -2.96716 -20.7209 8.48385
head -0.242519 -10.4952 4.5527
rclavicle -2.86747e-014 -2.98177e-015
rhumerus -29.9111 18.277 -84.6306
rradius 51.7021
rwrist 19.0131
rhand -25.897 -30.1597
rfingers 7.12502
rthumb 0.645191 -60.1384
lclavicle -2.86747e-014 -2.98177e-015
lhumerus -38.7007 22.5172 8.02232
lradius 143.898
lwrist 2.37891
lhand 5.18119 9.57465
lfingers 7.12502
lthumb 30.5428 37.0623
rfemur -13.4069 -10.1593 18.7914
rtibia 68.4626
rfoot -3.40936 12.3321
rtoes -24.6112
lfemur -22.4018 -3.53697 -27.2118
ltibia 46.3194
lfoot -12.5184 -11.9027
ltoes -2.88105
382
root 1.1395 17.2771 -1.99038 -200.219 -93.9668 201.469
lowerback 14.4851 -0.889844 -1.26048
upperback 1.79835 -1.5225 -0.90385
thorax -6.20895 -0.760272 0.0590243
lowerneck 9.74305 -14.7688 -12.3918
upperneck -3.29357 -20.7241 8.86097
head -0.324839 -10.5073 4.74252
rclavicle -1.6201e-014 -3.77691e-015
rhumerus -29.9757 16.3668 -84.6856
rradius 50.3992
rwrist 18.916
rhand -26.1814 -31.1966
rfingers 7.12502
rthumb 0.370546 -61.1761
lclavicle -1.6201e-014 -3.77691e-015
lhumerus -38.5287 23.0812 7.92348
lradius 144.109
lwrist 2.21975
lhand 5.69278 9.67775
lfingers 7.12502
lthumb 31.0305 37.0734
rfemur -15.6135 -10.6769 15.5001
rtibia 72.3708
rfoot -3.30023 12.7995
rtoes -20.9254
lfemur -21.4289 -3.29137 -29.8
ltibia 45.704
lfoot -11.6803 -12.2144
ltoes 0.851733
383
root 1.07331 17.3011 -1.9973 -209.754 -94.3545 210.674
lowerback 14.5688 -0.74363 -2.09781
upperback 1.96014 -1.48481 -1.13171
thorax -6.06915 -0.730744 0.284263
lowerneck 9.40101 -14.7777 -11.2092
upperneck -2.91039 -20.6341 7.00349
head -0.541918 -10.4069 4.53023
rclavicle 8.94531e-016 3.97569e-016
rhumerus -30.0135 14.5672 -84.7474
rradius 48.7499
rwrist 18.8056
rhand -26.6743 -32.2838
rfingers 7.12502
rthumb -0.105469 -62.2635
lclavicle 8.94531e-016 3.97569e-016
lhumerus -38.2476 23.4395 8.33808
lradius 144.214
lwrist 1.66947
lhand 6.14234 9.72741
lfingers 7.12502
lthumb 31.4589 37.0404
rfemur -17.7684 -10.6011 14.1408
rtibia 75.627
rfoot -4.1378 12.508
rtoes -20.6576
lfemur -20.4213 -2.71296 -30.6448
ltibia 44.8854
lfoot -10.9963 -12.4251
ltoes 2.81991
384
root 1.0044 17.3389 -1.99538 -211.757 -94.2303 212.333
lowerback 14.5014 -0.631255 -2.08713
upperback 2.16138 -1.33969 -1.19839
thorax -5.82288 -0.667546 0.177358
lowerneck 8.9715 -14.7928 -10.2645
upperneck -2.41199 -20.5597 5.59093
head -0.573572 -10.3386 3.8761
rclavicle 1.27719e-014 -2.98177e-015
rhumerus -30.1389 13.1308 -84.8925
rradius 46.9394
rwrist 18.5392
rhand -27.402 -34.1733
rfingers 7.12502
rthumb -0.808372 -64.1515
lclavicle 1.27719e-014 -2.98177e-015
lhumerus -38.1055 23.6159 8.92224
lradius 144.29
lwrist 1.12744
lhand 6.69792 9.61844
lfingers 7.12502
lthumb 31.9881 36.8268
rfemur -19.7493 -10.1662 13.7142
rtibia 78.1973
rfoot -4.64486 12.1318
rtoes -19.5727
lfemur -19.3115 -2.16783 -30.6826
ltibia 43.9641
lfoot -10.6611 -12.416
ltoes 3.1687
385
root 0.933263 17.3872 -1.98572 -210.856 -93.8175 211.127
lowerback 14.3074 -0.558354 -1.68968
upperback 2.36802 -1.17564 -1.1691
thorax -5.50707 -0.600852 -0.0513128
lowerneck 8.64945 -14.7671 -9.93421
upperneck -1.81522 -20.4923 4.70802
head -0.463025 -10.2928 3.48872
rclavicle -1.46107e-014 -1.0138e-014
rhumerus -30.2697 12.084 -85.0468
rradius 44.9472
rwrist 18.1382
rhand -27.9996 -36.0058
rfingers 7.12502
rthumb -1.38549 -65.981
lclavicle -1.46107e-014 -1.0138e-014
lhumerus -38.3719 23.5792 9.42404
lradius 144.41
lwrist 0.82093
lhand 7.07082 9.38362
lfingers 7.12502
lthumb 32.3431 36.5202
rfemur -21.5861 -9.51054 13.739
rtibia 80.074
rfoot -5.08376 11.5248
rtoes -18.3114
lfemur -18.2361 -1.88645 -30.3929
ltibia 43.1116
lfoot -10.6699 -12.0576
ltoes 2.05509
386
root 0.868408 17.4398 -1.97209 -208.834 -93.3169 208.895
lowerback 14.0815 -0.518966 -1.22953
upperback 2.51569 -1.04377 -1.08225
thorax -5.23448 -0.546995 -0.247823
lowerneck 8.61798 -14.7009 -10.0473
upperneck -1.44033 -20.4244 4.351
head -0.368896 -10.258 3.37084
rclavicle -6.4605e-016 -5.56597e-015
rhumerus -30.3408 11.347 -85.1206
rradius 42.7566
rwrist 17.6541
rhand -28.317 -35.978
rfingers 7.12502
rthumb -1.69208 -65.951
lclavicle -6.4605e-016 -5.56597e-015
lhumerus -39.0351 23.3207 9.76647
lradius 144.554
lwrist 0.717609
lhand 7.15722 9.0836
lfingers 7.12502
lthumb 32.4253 36.2033
rfemur -23.389 -8.74315 13.911
rtibia 81.4176
rfoot -5.83611 10.8159
rtoes -17.627
lfemur -17.2966 -1.78179 -30.0519
ltibia 42.2528
lfoot -10.8126 -11.4944
ltoes -0.965501
387
root 0.805458 17.4954 -1.95668 -207.169 -92.808 207.039
lowerback 13.8495 -0.499363 -0.838258
upperback 2.62085 -0.951581 -1.00412
thorax -5.00136 -0.509261 -0.406487
lowerneck 8.88743 -14.5908 -10.3301
upperneck -1.27955 -20.3353 4.271
head -0.348567 -10.2163 3.40589
rclavicle 3.47873e-016 0
rhumerus -30.5161 10.9635 -85.2205
rradius 40.5866
rwrist 17.3205
rhand -28.2727 -35.2204
rfingers 7.12502
rthumb -1.64926 -65.1937
lclavicle 3.47873e-016 0
lhumerus -40.0309 22.812 9.88271
lradius 144.747
lwrist 0.787249
lhand 6.89439 8.89107
lfingers 7.12502
lthumb 32.1752 36.0617
rfemur -24.9569 -7.85882 14.0886
rtibia 82.2804
rfoot -7.69165 9.95911
rtoes -17.7848
lfemur -16.4144 -1.8252 -29.7678
ltibia 41.394
lfoot -10.8591 -10.8114
ltoes -2.63853
388
root 0.744006 17.5514 -1.94641 -207.931 -92.3346 207.584
lowerback 13.7372 -0.470099 -0.677445
upperback 2.68054 -0.886053 -0.955564
thorax -4.87829 -0.480184 -0.459388
lowerneck 9.16562 -14.4746 -10.56
upperneck -1.12081 -20.2353 4.19665
head -0.336191 -10.1699 3.43668
rclavicle -9.34288e-015 -2.98177e-015
rhumerus -30.8245 10.8687 -85.3709
rradius 38.5657
rwrist 17.2662
rhand -28.0555 -34.5846
rfingers 7.12502
rthumb -1.43954 -64.5595
lclavicle -9.34288e-015 -2.98177e-015
lhumerus -41.2289 22.146 9.79375
lradius 145.02
lwrist 0.976142
lhand 6.71887 8.9592
lfingers 7.12502
lthumb 32.0081 36.1635
rfemur -26.2884 -6.88607 14.2354
rtibia 82.759
rfoot -10.7134 8.853
rtoes -19.0265
lfemur -15.5682 -1.97738 -29.6149
ltibia 40.5665
lfoot -10.7743 -10.006
ltoes -2.27501
389
root 0.695839 17.6028 -1.9416 -208.832 -91.993 208.362
lowerback 13.7638 -0.478866 -0.664872
upperback 2.65972 -0.892502 -0.894259
thorax -4.91395 -0.482873 -0.400651
lowerneck 9.23736 -14.3773 -10.6937
upperneck -0.883635 -20.1338 4.01037
head -0.285742 -10.1215 3.39397
rclavicle -6.31141e-015 -1.19271e-015
rhumerus -31.1724 10.785 -85.4288
rradius 36.6981
rwrist 17.7424
rhand -27.6428 -33.9195
rfingers 7.12502
rthumb -1.04089 -63.8967
lclavicle -6.31141e-015 -1.19271e-015
lhumerus -42.5142 21.435 9.60955
lradius 145.347
lwrist 1.09273
lhand 6.92306 8.96995
lfingers 7.12502
lthumb 32.2025 36.1351
rfemur -27.7102 -5.92509 14.4241
rtibia 82.9142
rfoot -13.4309 7.5795
rtoes -19.3586
lfemur -14.9155 -2.34199 -29.5495
ltibia 39.8243
lfoot -10.6946 -8.95579
ltoes -2.55963
390
root 0.657719 17.6485 -1.93613 -207.036 -91.6436 206.404
lowerback 13.8676 -0.503741 -0.587061
upperback 2.68824 -0.911426 -0.799195
thorax -4.94038 -0.493426 -0.340502
lowerneck 9.21291 -14.3056 -10.7491
upperneck -0.669469 -20.0488 3.78488
head -0.237623 -10.0797 3.31952
rclavicle 8.29926e-015 -1.98785e-016
rhumerus -31.4643 10.5364 -85.3305
rradius 34.9944
rwrist 18.8773
rhand -27.1937 -33.1722
rfingers 7.12502
rthumb -0.607122 -63.1511
lclavicle 8.29926e-015 -1.98785e-016
lhumerus -43.7362 20.7728 9.51903
lradius 145.704
lwrist 1.2123
lhand 6.59833 8.77215
lfingers 7.12502
lthumb 31.8933 35.9994
rfemur -29.0936 -4.84622 14.7375
rtibia 82.7044
rfoot -15.5483 6.15438
rtoes -19.0717
lfemur -14.2618 -2.88029 -29.4468
ltibia 39.1923
lfoot -10.8389 -7.63531
ltoes -3.97585
391
root 0.620446 17.6874 -1.93289 -201.194 -91.1295 200.274
lowerback 13.9929 -0.444278 -0.42559
upperback 2.83271 -0.809296 -0.680488
thorax -4.85679 -0.447913 -0.324725
lowerneck 9.14917 -14.2988 -10.7224
upperneck -0.499275 -20.0354 3.59664
head -0.19583 -10.0735 3.24186
rclavicle 4.87022e-015 -6.16232e-015
rhumerus -31.7 10.0352 -85.1031
rradius 33.4865
rwrist 20.261
rhand -27.1643 -32.6062
rfingers 7.12502
rthumb -0.578768 -62.5852
lclavicle 4.87022e-015 -6.16232e-015
lhumerus -44.6366 20.2131 9.65888
lradius 146.03
lwrist 1.42073
lhand 5.66422 8.58741
lfingers 7.12502
lthumb 31.0033 35.9883
rfemur -30.1885 -3.62988 15.245
rtibia 82.1013
rfoot -17.8612 4.45374
rtoes -20.1289
lfemur -13.513 -3.24507 -29.2085
ltibia 38.6671
lfoot -11.0662 -6.45101
ltoes -4.7732
